<svg class="w-6 h-6" viewBox="0 0 512 512" fill="none" xmlns="http://www.w3.org/2000/svg"><g clip-path="url(#clip0_279_10366)"><path d="M508.64 148.79C508.64 103.79 475.54 67.59 434.64 67.59C379.24 65 322.74 64 265 64H247C189.4 64 132.8 65 77.4002 67.6C36.6002 67.6 3.50022 104 3.50022 149C1.00022 184.59 -0.0597783 220.19 0.000221705 255.79C-0.0997783 291.39 1.03356 327.023 3.40022 362.69C3.40022 407.69 36.5002 444.19 77.3002 444.19C135.5 446.89 195.2 448.09 255.9 447.99C316.7 448.19 376.234 446.923 434.5 444.19C475.4 444.19 508.5 407.69 508.5 362.69C510.9 326.99 512 291.39 511.9 255.69C512.127 220.09 511.04 184.457 508.64 148.79ZM207 353.89V157.39L352 255.59L207 353.89Z" fill="currentColor"/></g><defs><clipPath id="clip0_279_10366"><rect width="512" height="512" fill="currentColor"/></clipPath></defs></svg>