<svg width="13" height="20" viewBox="0 0 13 20" fill="none" xmlns="http://www.w3.org/2000/svg">
<path d="M6.59999 20C3.2912 20 0.599997 17.1967 0.599997 13.75V5C0.599997 4.53995 0.958444 4.16672 1.39995 4.16672C1.8416 4.16672 2.20004 4.53995 2.20004 5V13.75C2.20004 16.2775 4.17363 18.3333 6.59999 18.3333C9.02636 18.3333 10.9999 16.2775 10.9999 13.75V4.58328C10.9999 2.97501 9.74398 1.66672 8.20004 1.66672C6.65595 1.66672 5.39999 2.97501 5.39999 4.58328V12.9167C5.39999 13.6058 5.93832 14.1667 6.59999 14.1667C7.26166 14.1667 7.79999 13.6058 7.79999 12.9167V5C7.79999 4.53995 8.15844 4.16672 8.59994 4.16672C9.04159 4.16672 9.40004 4.53995 9.40004 5V12.9167C9.40004 14.525 8.14393 15.8333 6.59999 15.8333C5.05605 15.8333 3.79994 14.525 3.79994 12.9167V4.58328C3.79994 2.05582 5.77353 0 8.20004 0C10.6264 0 12.6 2.05582 12.6 4.58328V13.75C12.6 17.1967 9.90878 20 6.59999 20Z" fill="black"/>
</svg>
