<svg class="w-6 h-6" viewBox="0 0 512 512" fill="none" xmlns="http://www.w3.org/2000/svg"><g clip-path="url(#clip0_971_4217)"><path d="M256 0C114.624 0 0 114.624 0 256C0 397.376 114.624 512 256 512C397.376 512 512 397.376 512 256C512 114.624 397.376 0 256 0ZM381.739 175.381L339.712 373.355C336.619 387.392 328.256 390.805 316.587 384.192L252.587 337.045L221.739 366.784C218.752 370.624 214.123 373.077 208.939 373.077C208.896 373.077 208.875 373.077 208.832 373.077L213.376 307.925L331.989 200.789C337.109 196.245 330.837 193.664 324.032 198.208L177.493 290.496L114.347 270.784C100.693 266.453 100.309 257.131 117.227 250.432L363.968 155.328C375.445 151.147 385.429 158.059 381.717 175.403L381.739 175.381Z" fill="currentColor"/></g><defs><clipPath id="clip0_971_4217"><rect width="512" height="512" fill="currentColor"/></clipPath></defs></svg>